<?xml version="1.0" encoding="UTF-8" standalone="no"?>
<!DOCTYPE svg PUBLIC "-//W3C//DTD SVG 1.1//EN" "http://www.w3.org/Graphics/SVG/1.1/DTD/svg11.dtd">
<svg width="100%" height="100%" viewBox="0 0 66 16" version="1.1" xmlns="http://www.w3.org/2000/svg" xmlns:xlink="http://www.w3.org/1999/xlink" xml:space="preserve" xmlns:serif="http://www.serif.com/" style="fill-rule:evenodd;clip-rule:evenodd;stroke-linejoin:round;stroke-miterlimit:2;">
    <rect id="Mesa-de-trabajo1" serif:id="Mesa de trabajo1" x="0" y="0" width="66" height="16" style="fill:none;"/>
    <g id="Mesa-de-trabajo11" serif:id="Mesa de trabajo1">
        <g transform="matrix(0.0714039,0,0,0.0714039,-9.84233,-20.5616)">
            <path d="M138.462,504.878L174.658,504.878L174.658,410.536C174.658,391.93 186.868,378.411 204.312,378.411C221.173,378.411 231.64,389.023 231.64,406.175L231.64,504.875L266.817,504.875L266.817,409.662C266.817,391.201 278.737,378.41 296.18,378.41C313.914,378.41 323.799,389.166 323.799,408.064L323.799,504.876L359.994,504.876L359.994,399.2C359.994,368.383 340.08,347.887 309.698,347.887C287.457,347.887 269.143,359.807 261.727,378.849L260.855,378.849C255.186,359.08 239.632,347.887 217.829,347.887C196.897,347.887 180.617,359.661 173.93,377.541L173.203,377.541L173.203,350.794L138.462,350.794L138.462,504.877L138.462,504.878ZM439.222,480.021C423.523,480.021 413.058,472.026 413.058,459.38C413.058,447.169 423.087,439.32 440.531,438.157L476.145,435.976L476.145,447.751C476.145,466.357 459.718,480.021 439.222,480.021L439.222,480.021ZM428.32,507.349C448.09,507.349 467.423,497.029 476.291,480.312L477.018,480.312L477.018,504.878L511.905,504.878L511.905,398.763C511.905,367.801 487.048,347.595 448.818,347.595C409.57,347.595 385.006,368.237 383.406,397.017L416.984,397.017C419.31,384.226 430.212,375.94 447.365,375.94C465.245,375.94 476.147,385.243 476.147,401.378L476.147,412.426L435.444,414.751C397.941,417.077 376.863,433.503 376.863,460.832C376.863,488.596 398.522,507.348 428.321,507.348L428.32,507.349ZM670.791,405.74C668.32,373.324 643.171,347.595 602.472,347.595C557.701,347.595 528.627,378.557 528.627,427.833C528.627,477.84 557.699,507.926 602.762,507.926C641.43,507.926 668.029,485.249 670.936,450.797L636.776,450.797C633.432,468.241 621.512,478.707 603.197,478.707C580.229,478.707 565.404,460.1 565.404,427.829C565.404,396.141 580.085,376.952 602.907,376.952C622.24,376.952 633.723,389.308 636.631,405.734L670.791,405.734L670.791,405.74ZM782.581,291.631C721.385,291.631 683.008,333.35 683.008,400.073C683.008,466.795 721.381,508.369 782.581,508.369C843.632,508.369 882.01,466.795 882.01,400.073C882.01,333.35 843.636,291.631 782.581,291.631ZM782.581,323.611C819.939,323.611 843.777,353.265 843.777,400.072C843.777,446.733 819.938,476.388 782.581,476.388C745.078,476.388 721.385,446.734 721.385,400.072C721.385,353.266 745.079,323.611 782.581,323.611ZM897.278,445.862C898.877,484.53 930.566,508.368 978.826,508.368C1029.56,508.368 1061.54,483.366 1061.54,443.536C1061.54,412.284 1043.51,394.695 1000.92,384.956L976.793,379.432C951.063,373.327 940.452,365.187 940.452,351.232C940.452,333.789 956.442,322.16 980.136,322.16C1004.12,322.16 1020.55,333.934 1022.29,353.558L1058.05,353.558C1057.18,316.636 1026.65,291.632 980.428,291.632C934.782,291.632 902.366,316.78 902.366,353.993C902.366,383.938 920.682,402.545 959.347,411.412L986.529,417.808C1012.99,424.059 1023.74,432.781 1023.74,447.898C1023.74,465.342 1006.15,477.843 980.862,477.843C955.278,477.843 935.946,465.197 933.62,445.863L897.28,445.863L897.278,445.862Z" style="fill-rule:nonzero;"/>
        </g>
    </g>
</svg>
