<?xml version="1.0" encoding="UTF-8" standalone="no"?>
<!DOCTYPE svg PUBLIC "-//W3C//DTD SVG 1.1//EN" "http://www.w3.org/Graphics/SVG/1.1/DTD/svg11.dtd">
<svg width="100%" height="100%" viewBox="0 0 58 32" version="1.1" xmlns="http://www.w3.org/2000/svg" xmlns:xlink="http://www.w3.org/1999/xlink" xml:space="preserve" xmlns:serif="http://www.serif.com/" style="fill-rule:evenodd;clip-rule:evenodd;stroke-linejoin:round;stroke-miterlimit:2;">
    <rect id="Mesa-de-trabajo1" serif:id="Mesa de trabajo1" x="0" y="0" width="58" height="32" style="fill:none;"/>
    <g id="Mesa-de-trabajo11" serif:id="Mesa de trabajo1">
        <g transform="matrix(0.0783968,0,0,-0.0783968,-12.0076,45.2858)">
            <path d="M153.846,373.559C153.846,266.29 319.16,179.33 523.076,179.33C726.993,179.33 892.308,266.29 892.308,373.559C892.308,480.827 726.993,567.788 523.076,567.788C319.16,567.788 153.846,480.827 153.846,373.559" style="fill:url(#_Radial1);fill-rule:nonzero;"/>
            <path d="M523.076,193.752C719.028,193.752 877.884,274.254 877.884,373.559C877.884,472.864 719.028,553.368 523.076,553.368C327.124,553.368 168.269,472.864 168.269,373.56C168.269,274.254 327.124,193.749 523.076,193.749" style="fill:rgb(119,123,179);fill-rule:nonzero;"/>
            <path d="M354.452,351.266C370.565,351.266 382.593,354.238 390.204,360.094C397.733,365.892 402.934,375.936 405.659,389.947C408.201,403.042 407.233,412.186 402.783,417.121C398.233,422.161 388.396,424.717 373.545,424.717L347.798,424.717L333.521,351.266L354.452,351.266ZM270.234,260.788C270.233,260.788 270.232,260.788 270.232,260.788C268.035,260.788 266.228,262.595 266.228,264.792C266.228,265.049 266.253,265.306 266.302,265.558L304.133,460.203C304.497,462.079 306.155,463.445 308.066,463.445L389.602,463.445C415.227,463.445 434.3,456.488 446.288,442.763C458.341,428.966 462.063,409.681 457.35,385.443C455.432,375.569 452.134,366.398 447.548,358.186C442.954,349.968 436.884,342.361 429.503,335.577C420.667,327.309 410.667,321.313 399.807,317.785C389.12,314.303 375.395,312.536 359.011,312.536L325.996,312.536L316.568,264.031C316.203,262.155 314.546,260.789 312.636,260.788L270.234,260.788Z" style="fill-rule:nonzero;"/>
            <path d="M351.1,420.71L373.547,420.71C391.469,420.71 397.696,416.777 399.811,414.434C403.321,410.542 403.983,402.337 401.728,390.706C399.193,377.686 394.495,368.454 387.761,363.269C380.868,357.962 369.66,355.273 354.453,355.273L338.381,355.273L351.1,420.71ZM389.602,467.452L308.066,467.452C304.245,467.452 300.929,464.719 300.2,460.968L262.372,266.324C262.274,265.82 262.225,265.309 262.225,264.796C262.225,260.401 265.841,256.784 270.236,256.783L312.637,256.783C316.458,256.783 319.773,259.515 320.503,263.265L329.301,308.531L359.014,308.531C375.817,308.531 389.962,310.363 401.053,313.976C412.458,317.682 422.954,323.965 432.242,332.651C439.923,339.718 446.251,347.651 451.045,356.231C455.84,364.814 459.285,374.386 461.286,384.68C466.247,410.192 462.216,430.622 449.306,445.398C436.525,460.032 416.437,467.452 389.604,467.452M328.663,347.26L354.455,347.26C371.549,347.26 384.284,350.48 392.649,356.92C401.019,363.363 406.662,374.115 409.595,389.181C412.399,403.647 411.123,413.855 405.761,419.804C400.392,425.749 389.655,428.725 373.548,428.725L344.496,428.725L328.663,347.261M389.604,459.44C414.133,459.44 432.027,453.003 443.274,440.127C454.519,427.253 457.907,409.28 453.42,386.207C451.573,376.703 448.449,368.013 444.051,360.14C439.648,352.262 433.899,345.059 426.794,338.527C418.328,330.604 408.922,324.959 398.572,321.595C388.222,318.223 375.04,316.544 359.014,316.544L322.695,316.544L312.637,264.795L270.236,264.795L308.066,459.439L389.603,459.439" style="fill:white;fill-rule:nonzero;"/>
            <path d="M554.571,312.538C553.374,312.538 552.24,313.072 551.48,313.996C550.719,314.918 550.409,316.134 550.638,317.308L567.373,403.431C568.964,411.621 568.572,417.5 566.268,419.984C564.858,421.502 560.622,424.049 548.096,424.049L517.779,424.049L496.738,315.78C496.374,313.904 494.716,312.537 492.805,312.538L450.738,312.538C450.737,312.538 450.736,312.538 450.735,312.538C448.538,312.538 446.731,314.345 446.731,316.541C446.731,316.799 446.756,317.055 446.805,317.308L484.636,511.952C485.001,513.828 486.658,515.195 488.569,515.195C488.569,515.195 530.636,515.195 530.636,515.195C532.834,515.195 534.643,513.386 534.643,511.188C534.643,510.932 534.618,510.676 534.569,510.425L525.44,463.445L558.055,463.445C582.901,463.445 599.75,459.065 609.563,450.053C619.565,440.86 622.686,426.16 618.84,406.357L601.239,315.78C600.874,313.904 599.216,312.537 597.306,312.538L554.571,312.538Z" style="fill-rule:nonzero;"/>
            <path d="M530.636,519.201L488.569,519.201C484.748,519.201 481.432,516.468 480.703,512.718L442.872,318.073C442.774,317.568 442.724,317.055 442.724,316.541C442.724,312.147 446.34,308.531 450.734,308.531C450.736,308.531 450.737,308.531 450.738,308.531L492.805,308.531C496.626,308.531 499.942,311.264 500.671,315.015L521.081,420.043L548.098,420.043C560.6,420.043 563.225,417.372 563.33,417.257C564.089,416.442 565.086,412.663 563.44,404.196L546.706,318.072C546.608,317.567 546.559,317.055 546.559,316.541C546.559,312.147 550.174,308.531 554.569,308.531C554.57,308.531 554.571,308.531 554.572,308.531L597.307,308.531C601.128,308.531 604.444,311.264 605.173,315.015L622.772,405.593C626.902,426.855 623.369,442.804 612.275,453.002C601.686,462.726 583.951,467.452 558.055,467.452L530.299,467.452L538.502,509.659C538.6,510.163 538.649,510.674 538.649,511.187C538.649,515.583 535.032,519.201 530.636,519.201M530.636,511.188L520.58,459.439L558.055,459.439C581.635,459.439 597.9,455.323 606.853,447.102C615.803,438.875 618.485,425.548 614.907,407.121L597.306,316.544L554.571,316.544L571.305,402.666C573.21,412.463 572.51,419.145 569.203,422.708C565.895,426.271 558.859,428.056 548.096,428.056L514.476,428.056L492.807,316.544L450.739,316.544L488.571,511.188L530.638,511.188" style="fill:white;fill-rule:nonzero;"/>
            <path d="M685.403,351.266C701.515,351.266 713.544,354.238 721.153,360.094C728.684,365.889 733.884,375.935 736.611,389.947C739.152,403.042 738.184,412.186 733.733,417.121C729.183,422.161 719.346,424.717 704.496,424.717L678.747,424.717L664.47,351.266L685.403,351.266ZM601.185,260.788C601.185,260.788 601.184,260.788 601.184,260.788C598.986,260.788 597.178,262.596 597.178,264.793C597.178,265.05 597.203,265.306 597.252,265.558L635.083,460.203C635.449,462.079 637.107,463.445 639.018,463.445L720.552,463.445C746.178,463.445 765.25,456.488 777.24,442.763C789.293,428.968 793.012,409.682 788.302,385.443C786.381,375.569 783.084,366.398 778.497,358.186C773.903,349.968 767.834,342.361 760.453,335.577C751.618,327.309 741.618,321.313 730.758,317.785C720.07,314.303 706.344,312.536 689.962,312.536L656.944,312.536L647.519,264.031C647.154,262.155 645.496,260.788 643.585,260.788L601.185,260.788Z" style="fill-rule:nonzero;"/>
            <path d="M682.05,420.71L704.496,420.71C722.419,420.71 728.645,416.777 730.76,414.434C734.273,410.542 734.934,402.337 732.677,390.708C730.142,377.687 725.443,368.454 718.71,363.269C711.817,357.962 700.609,355.273 685.404,355.273L669.333,355.273L682.05,420.71ZM720.552,467.452L639.016,467.452C635.196,467.451 631.881,464.718 631.152,460.968L593.322,266.324C593.224,265.82 593.175,265.309 593.175,264.796C593.175,260.401 596.791,256.784 601.187,256.783L643.588,256.783C647.408,256.783 650.724,259.515 651.454,263.265L660.25,308.531L689.964,308.531C706.766,308.531 720.911,310.363 732.002,313.976C743.409,317.682 753.905,323.966 763.194,332.654C770.875,339.72 777.2,347.651 781.994,356.231C786.79,364.814 790.235,374.386 792.235,384.68C797.196,410.194 793.165,430.624 780.257,445.399C767.474,460.032 747.387,467.452 720.553,467.452M659.613,347.26L685.404,347.26C702.499,347.26 715.233,350.48 723.6,356.92C731.969,363.363 737.611,374.115 740.544,389.181C743.351,403.647 742.073,413.855 736.711,419.804C731.343,425.749 720.605,428.725 704.497,428.725L675.445,428.725L659.613,347.261M720.553,459.44C745.082,459.44 762.976,453.003 774.223,440.127C785.47,427.253 788.856,409.28 784.369,386.207C782.522,376.703 779.398,368.013 775,360.14C770.597,352.262 764.848,345.059 757.743,338.527C749.277,330.604 739.871,324.959 729.521,321.595C719.171,318.223 705.99,316.544 689.964,316.544L653.644,316.544L643.588,264.795L601.187,264.795L639.018,459.439L720.553,459.439" style="fill:white;fill-rule:nonzero;"/>
        </g>
    </g>
    <defs>
        <radialGradient id="_Radial1" cx="0" cy="0" r="1" gradientUnits="userSpaceOnUse" gradientTransform="matrix(484.852,0,0,-484.852,50506.6,-56735.2)"><stop offset="0" style="stop-color:rgb(174,178,213);stop-opacity:1"/><stop offset="0.3" style="stop-color:rgb(174,178,213);stop-opacity:1"/><stop offset="0.75" style="stop-color:rgb(72,76,137);stop-opacity:1"/><stop offset="1" style="stop-color:rgb(72,76,137);stop-opacity:1"/></radialGradient>
    </defs>
</svg>
