<?xml version="1.0" encoding="UTF-8" standalone="no"?>
<!DOCTYPE svg PUBLIC "-//W3C//DTD SVG 1.1//EN" "http://www.w3.org/Graphics/SVG/1.1/DTD/svg11.dtd">
<svg width="100%" height="100%" viewBox="0 0 128 31" version="1.1" xmlns="http://www.w3.org/2000/svg" xmlns:xlink="http://www.w3.org/1999/xlink" xml:space="preserve" xmlns:serif="http://www.serif.com/" style="fill-rule:evenodd;clip-rule:evenodd;stroke-linejoin:round;stroke-miterlimit:2;">
    <g id="Mesa-de-trabajo1" serif:id="Mesa de trabajo1" transform="matrix(1,0,0,0.235156,0,0)">
        <rect x="0" y="0" width="128" height="128" style="fill:none;"/>
        <clipPath id="_clip1">
            <rect x="0" y="0" width="128" height="128"/>
        </clipPath>
        <g clip-path="url(#_clip1)">
            <g transform="matrix(1,0,0,4.25249,397.538,189.716)">
                <g transform="matrix(0.138667,0,0,0.138667,-416.738,-85.0296)">
                    <path d="M327.219,432.384C355.093,432.231 376.201,412.688 376.201,390.239C376.257,388.506 376.1,386.773 375.733,385.079L364.493,336.258C361.899,325.516 359.62,320.643 340.762,311.214C326.127,303.73 294.249,291.374 284.82,291.374C276.039,291.374 273.489,302.689 263.019,302.689C252.941,302.689 245.458,294.241 236.029,294.241C226.976,294.241 221.077,300.411 216.521,313.099C216.521,313.099 203.833,348.886 202.204,354.075C201.945,355.029 201.833,356.016 201.872,357.002C201.872,370.912 253.836,432.384 327.219,432.384ZM379.098,399.351C381.708,411.707 381.708,413.005 381.708,414.634C381.708,435.756 357.961,447.478 326.746,447.478C256.2,447.524 194.404,406.186 194.404,378.863C194.4,375.06 195.175,371.296 196.682,367.805C171.306,369.072 138.462,373.598 138.462,402.595C138.462,450.089 250.995,508.626 340.098,508.626C408.411,508.626 425.641,477.728 425.641,453.332C425.641,434.142 409.045,412.356 379.128,399.351" style="fill:rgb(238,0,0);fill-rule:nonzero;"/>
                </g>
                <g transform="matrix(0.138667,0,0,0.138667,-416.738,-84.8476)">
                    <path d="M379.098,399.351C381.708,411.707 381.708,413.005 381.708,414.634C381.708,435.756 357.961,447.478 326.746,447.478C256.2,447.524 194.404,406.186 194.404,378.863C194.4,375.06 195.175,371.296 196.682,367.805L202.204,354.136C201.951,355.069 201.839,356.036 201.872,357.002C201.872,370.912 256.637,416.52 330.02,416.52C348.894,416.52 376.201,412.628 376.201,390.178C376.257,388.446 376.1,386.713 375.733,385.019L379.098,399.351ZM1012.36,430.626C1012.36,448.565 1023.14,457.285 1042.82,457.285C1048.87,457.134 1054.89,456.284 1060.75,454.75L1060.75,433.946C1057.01,435.133 1053.1,435.723 1049.17,435.696C1041.07,435.696 1038.06,433.161 1038.06,425.542L1038.06,393.664L1061.54,393.664L1061.54,372.24L1038.06,372.24L1038.06,345.084L1012.42,350.636L1012.42,372.24L995.382,372.24L995.382,393.664L1012.36,393.664L1012.36,430.626ZM932.395,431.109C932.395,425.557 937.962,422.857 946.365,422.857C951.502,422.887 956.616,423.525 961.603,424.758L961.603,435.545C956.689,438.229 951.164,439.596 945.565,439.513C937.328,439.513 932.395,436.344 932.395,431.109ZM940.24,457.602C949.292,457.602 956.594,455.701 963.413,451.099L963.413,456.184L988.789,456.184L988.789,402.384C988.789,381.926 975,370.701 951.992,370.701C939.138,370.701 926.435,373.719 912.767,379.904L921.97,398.793C931.806,394.659 940.074,392.125 947.361,392.125C957.922,392.125 963.383,396.243 963.383,404.662L963.383,408.781C957.165,407.171 950.766,406.37 944.343,406.397C922.754,406.397 909.749,415.449 909.749,431.637C909.749,446.392 921.487,457.647 940.21,457.647L940.24,457.602ZM800.746,456.229L828.039,456.229L828.039,412.703L873.737,412.703L873.737,456.184L901.104,456.184L901.104,345.114L873.842,345.114L873.842,387.795L828.144,387.795L828.144,345.114L800.852,345.114L800.746,456.229ZM696.858,414.136C696.858,402.067 706.378,392.864 718.915,392.864C725.436,392.732 731.773,395.06 736.657,399.381L736.657,428.725C731.878,433.241 725.487,435.665 718.915,435.454C706.544,435.454 696.858,426.251 696.858,414.197L696.858,414.136ZM737.004,456.244L762.395,456.244L762.395,339.562L736.748,345.114L736.748,376.691C730.219,372.99 722.829,371.074 715.324,371.139C690.899,371.139 671.693,390.012 671.693,414.136C671.691,414.313 671.69,414.489 671.69,414.665C671.69,438.046 690.929,457.286 714.31,457.286C714.387,457.286 714.463,457.285 714.54,457.285C722.632,457.324 730.528,454.769 737.064,449.998L737.004,456.244ZM620.488,391.702C628.575,391.702 635.394,396.937 638.094,405.024L603.093,405.024C605.627,396.681 611.979,391.702 620.488,391.702ZM577.234,414.333C577.234,438.773 597.224,457.813 622.917,457.813C637.038,457.813 647.358,453.996 657.994,445.11L641.006,430.023C637.038,434.157 631.17,436.375 624.199,436.375C615.247,436.627 607.017,431.315 603.561,423.053L663.38,423.053L663.38,416.671C663.38,390.012 645.457,370.822 621.016,370.822C620.799,370.819 620.583,370.817 620.366,370.817C596.72,370.817 577.262,390.275 577.262,413.92C577.262,414.043 577.263,414.165 577.264,414.287L577.234,414.333ZM532.984,368.438C542.036,368.438 547.105,374.141 547.105,380.975C547.105,387.81 542.036,393.513 532.984,393.513L505.994,393.513L505.994,368.438L532.984,368.438ZM478.671,456.184L505.963,456.184L505.963,415.721L526.738,415.721L547.694,456.184L578.245,456.184L553.804,411.753C566.485,406.596 574.8,394.182 574.745,380.493C574.745,360.502 559.039,345.114 535.519,345.114L478.671,345.114L478.671,456.184Z" style="fill-rule:nonzero;"/>
                </g>
            </g>
        </g>
    </g>
</svg>
