<?xml version="1.0" encoding="UTF-8" standalone="no"?>
<!DOCTYPE svg PUBLIC "-//W3C//DTD SVG 1.1//EN" "http://www.w3.org/Graphics/SVG/1.1/DTD/svg11.dtd">
<svg width="100%" height="100%" viewBox="0 0 122 28" version="1.1" xmlns="http://www.w3.org/2000/svg" xmlns:xlink="http://www.w3.org/1999/xlink" xml:space="preserve" xmlns:serif="http://www.serif.com/" style="fill-rule:evenodd;clip-rule:evenodd;stroke-linejoin:round;stroke-miterlimit:2;">
    <rect id="Mesa-de-trabajo1" serif:id="Mesa de trabajo1" x="0" y="0" width="122" height="28" style="fill:none;"/>
    <g id="Mesa-de-trabajo11" serif:id="Mesa de trabajo1">
        <g transform="matrix(0.131595,0,0,0.131594,-17.9572,-38.6378)">
            <path d="M557.702,339.776L523.883,459.504L507.44,459.504L482.807,372.005C481.753,368.276 481.108,364.212 480.888,359.815L480.556,359.815C480.231,363.884 479.504,367.912 478.387,371.839L453.592,459.504L437.309,459.504L402.242,339.776L417.684,339.776L443.152,431.616C444.223,435.546 444.895,439.575 445.156,443.641L445.576,443.641C445.853,440.688 446.709,436.684 448.16,431.616L474.629,339.776L488.07,339.776L513.448,432.287C514.339,435.457 515.003,439.189 515.452,443.473L515.784,443.473C516.005,440.582 516.757,436.742 518.042,431.953L542.503,339.782L557.702,339.782L557.702,339.776ZM576.559,352.297C574.108,352.297 572.021,351.461 570.296,349.79C568.572,348.12 567.712,346.01 567.712,343.445C567.712,340.89 568.578,338.754 570.296,337.053C572.027,335.357 574.108,334.509 576.559,334.509C579.064,334.509 581.192,335.363 582.949,337.053C584.699,338.754 585.577,340.884 585.577,343.445C585.577,345.896 584.699,347.983 582.949,349.707C581.192,351.436 579.066,352.297 576.559,352.297ZM583.238,459.504L569.545,459.504L569.545,374.005L583.238,374.005L583.238,459.504ZM675.26,459.504L661.566,459.504L661.566,410.747C661.566,392.602 654.941,383.53 641.699,383.53C634.853,383.53 629.185,386.104 624.705,391.253C620.221,396.402 617.984,402.9 617.984,410.747L617.984,459.504L604.289,459.504L604.289,374.005L617.984,374.005L617.984,388.197L618.315,388.197C624.771,377.4 634.12,372.003 646.368,372.003C655.718,372.003 662.871,375.022 667.825,381.06C672.783,387.099 675.256,395.824 675.256,407.232L675.256,459.502L675.262,459.502L675.26,459.504ZM772.667,459.504L758.972,459.504L758.972,444.974L758.641,444.974C752.295,455.996 742.492,461.508 729.25,461.508C718.507,461.508 709.922,457.681 703.494,450.025C697.069,442.375 693.849,431.95 693.849,418.757C693.849,404.619 697.41,393.29 704.538,384.781C711.662,376.259 721.149,372.005 733.012,372.005C744.751,372.005 753.295,376.626 758.641,385.864L758.972,385.864L758.972,332.929L772.667,332.929L772.667,459.504ZM758.978,420.85L758.978,408.24C758.978,401.341 756.69,395.499 752.133,390.704C747.566,385.923 741.781,383.524 734.765,383.524C726.415,383.524 719.844,386.588 715.062,392.708C710.275,398.836 707.88,407.292 707.88,418.089C707.88,427.943 710.177,435.721 714.769,441.423C719.355,447.126 725.521,449.98 733.26,449.98C740.887,449.98 747.077,447.231 751.84,441.714C756.594,436.208 758.978,429.246 758.978,420.85ZM832.523,461.506C819.884,461.506 809.8,457.515 802.258,449.528C794.714,441.538 790.947,430.947 790.947,417.757C790.947,403.397 794.872,392.18 802.72,384.112C810.563,376.038 821.169,371.999 834.531,371.999C847.272,371.999 857.229,375.922 864.376,383.773C871.529,391.616 875.104,402.503 875.104,416.418C875.104,430.057 871.25,440.977 863.542,449.19C855.832,457.401 845.494,461.506 832.523,461.506ZM833.525,383.524C824.727,383.524 817.768,386.515 812.654,392.498C807.528,398.489 804.973,406.735 804.973,417.254C804.973,427.386 807.559,435.368 812.743,441.216C817.915,447.055 824.848,449.98 833.529,449.98C842.382,449.98 849.182,447.113 853.946,441.378C858.705,435.647 861.083,427.492 861.083,416.917C861.083,406.226 858.703,397.994 853.946,392.201C849.182,386.42 842.378,383.524 833.525,383.524ZM998.497,374.007L972.868,459.504L958.67,459.504L941.057,398.302C940.389,395.963 939.94,393.325 939.724,390.375L939.392,390.375C939.227,392.377 938.641,394.961 937.639,398.14L918.523,459.507L904.826,459.507L878.943,374.013L893.301,374.013L910.996,438.295C911.549,440.245 911.94,442.804 912.164,445.974L912.833,445.974C913,443.527 913.503,440.914 914.338,438.129L934.041,374.007L946.563,374.007L964.262,438.461C964.815,440.523 965.235,443.084 965.518,446.142L966.187,446.142C966.295,443.972 966.769,441.413 967.603,438.461L984.971,374.007L998.497,374.007ZM1004.84,456.411L1004.84,441.716C1012.3,447.231 1020.51,449.982 1029.47,449.982C1041.49,449.982 1047.5,445.974 1047.5,437.958C1047.5,435.676 1046.99,433.742 1045.96,432.154C1044.94,430.566 1043.54,429.165 1041.79,427.938C1040.04,426.716 1037.97,425.612 1035.62,424.64C1033.08,423.601 1030.53,422.585 1027.98,421.592C1024.19,420.087 1020.86,418.572 1018,417.038C1015.13,415.508 1012.74,413.784 1010.82,411.861C1008.94,409.996 1007.46,407.764 1006.48,405.303C1005.5,402.856 1005.01,399.992 1005.01,396.705C1005.01,392.699 1005.93,389.147 1007.76,386.06C1009.61,382.967 1012.05,380.383 1015.11,378.292C1018.18,376.206 1021.67,374.631 1025.6,373.571C1029.56,372.512 1033.64,371.981 1037.74,371.991C1045.14,371.991 1051.76,373.275 1057.61,375.83L1057.61,389.689C1051.31,385.571 1044.08,383.509 1035.9,383.509C1033.34,383.509 1031.03,383.802 1028.97,384.389C1026.91,384.969 1025.15,385.796 1023.67,386.85C1022.2,387.91 1021.06,389.176 1020.25,390.646C1019.44,392.145 1019.02,393.828 1019.04,395.533C1019.04,397.761 1019.44,399.622 1020.25,401.131C1021.06,402.63 1022.24,403.964 1023.8,405.137C1025.36,406.299 1027.25,407.361 1029.47,408.303C1031.71,409.251 1034.24,410.282 1037.08,411.396C1040.86,412.847 1044.26,414.337 1047.26,415.861C1050.27,417.391 1052.83,419.12 1054.94,421.039C1057.01,422.895 1058.67,425.152 1059.83,427.674C1060.97,430.184 1061.54,433.16 1061.54,436.609C1061.54,440.841 1060.61,444.513 1058.74,447.631C1056.88,450.753 1054.32,453.408 1051.27,455.393C1048.15,457.455 1044.57,458.985 1040.5,459.987C1036.45,460.989 1032.19,461.49 1027.73,461.49C1018.92,461.506 1011.3,459.806 1004.84,456.411ZM342.318,296.617L228.851,313.174L228.851,395.396L342.314,395.396L342.318,296.617ZM138.462,326.354L138.462,395.396L220.854,395.396L220.854,314.336L138.462,326.354ZM138.462,473.309L220.854,485.464L220.854,403.388L138.462,403.388L138.462,473.309ZM342.318,503.383L342.318,403.388L228.851,403.388L228.851,486.647L342.318,503.383Z" style="fill:rgb(0,120,214);fill-rule:nonzero;"/>
        </g>
    </g>
</svg>
