<?xml version="1.0" encoding="UTF-8" standalone="no"?>
<!DOCTYPE svg PUBLIC "-//W3C//DTD SVG 1.1//EN" "http://www.w3.org/Graphics/SVG/1.1/DTD/svg11.dtd">
<svg width="100%" height="100%" viewBox="0 0 164 38" version="1.1" xmlns="http://www.w3.org/2000/svg" xmlns:xlink="http://www.w3.org/1999/xlink" xml:space="preserve" xmlns:serif="http://www.serif.com/" style="fill-rule:evenodd;clip-rule:evenodd;stroke-linejoin:round;stroke-miterlimit:2;">
    <g id="Mesa-de-trabajo1" serif:id="Mesa de trabajo1" transform="matrix(1.11565,0,0,1.05556,0,0)">
        <rect x="0" y="0" width="147" height="36" style="fill:none;"/>
        <g transform="matrix(0.158687,0,0,0.167721,-21.7123,-49.0883)">
            <path d="M673.829,377.719L637.492,377.719L637.492,381.574C648.858,381.574 650.685,384.009 650.685,398.423L650.685,424.408C650.685,438.82 648.86,441.459 637.492,441.459C628.766,440.242 622.877,435.572 614.757,426.64L605.421,416.491C618.005,414.256 624.703,406.341 624.703,397.408C624.703,386.245 615.164,377.719 597.299,377.719L561.573,377.719L561.573,381.574C572.938,381.574 574.766,384.009 574.766,398.423L574.766,424.408C574.766,438.82 572.938,441.459 561.573,441.459L561.573,445.315L601.968,445.315L601.968,441.459C590.602,441.459 588.774,438.82 588.774,424.408L588.774,417.102L592.224,417.102L614.757,445.315L673.829,445.315C702.856,445.315 715.443,429.89 715.443,411.415C715.443,392.943 702.858,377.719 673.829,377.719ZM588.776,410.806L588.776,383.809L597.097,383.809C606.231,383.809 610.292,390.102 610.292,397.409C610.292,404.515 606.231,410.806 597.097,410.806L588.776,410.806ZM674.439,439.023L673.017,439.023C665.711,439.023 664.696,437.197 664.696,427.859L664.696,383.809L674.439,383.809C695.55,383.809 699.405,399.235 699.405,411.213C699.405,423.594 695.549,439.023 674.439,439.023ZM448.509,418.319L462.516,376.905C466.578,364.929 464.75,361.479 451.759,361.479L451.759,357.418L489.921,357.418L489.921,361.479C477.133,361.479 474.089,364.524 469.014,379.343L445.87,448.767L443.232,448.767L422.525,385.228L401.415,448.767L398.776,448.767L376.244,379.343C371.373,364.524 368.125,361.479 356.35,361.479L356.35,357.418L401.415,357.418L401.415,361.479C389.438,361.479 386.188,364.321 390.453,376.905L404.053,418.319L424.556,357.418L428.414,357.418L448.509,418.319ZM517.525,447.953C495.197,447.953 476.926,431.512 476.926,411.413C476.926,391.521 495.198,375.076 517.525,375.076C539.855,375.076 558.123,391.521 558.123,411.413C558.123,431.512 539.855,447.953 517.525,447.953ZM517.525,381.374C498.851,381.374 492.354,398.22 492.354,411.415C492.354,424.815 498.851,441.459 517.525,441.459C536.405,441.459 542.901,424.815 542.901,411.415C542.901,398.22 536.405,381.374 517.525,381.374Z" style="fill:rgb(0,116,154);fill-rule:nonzero;"/>
            <path d="M765.579,441.256L765.579,445.315L719.094,445.315L719.094,441.256C732.696,441.256 735.132,437.806 735.132,417.503L735.132,385.026C735.132,364.724 732.696,361.478 719.094,361.478L719.094,357.416L761.113,357.416C782.021,357.416 793.595,368.175 793.595,382.591C793.595,396.597 782.021,407.558 761.113,407.558L749.542,407.558L749.542,417.502C749.542,437.806 751.978,441.256 765.579,441.256ZM761.113,364.724L749.542,364.724L749.542,400.047L761.113,400.047C772.482,400.047 777.759,392.131 777.759,382.591C777.759,372.847 772.482,364.724 761.113,364.724ZM933.048,426.235L932.032,429.888C930.207,436.587 927.971,439.023 913.559,439.023L910.716,439.023C900.162,439.023 898.335,436.587 898.335,422.175L898.335,412.838C914.169,412.838 915.388,414.257 915.388,424.815L919.244,424.815L919.244,394.567L915.388,394.567C915.388,405.122 914.169,406.543 898.335,406.543L898.335,383.809L909.497,383.809C923.913,383.809 926.144,386.245 927.971,392.944L928.988,396.799L932.234,396.799L930.815,377.719L871.133,377.719L871.133,381.574C882.499,381.574 884.328,384.009 884.328,398.423L884.328,424.408C884.328,437.592 882.776,440.914 873.814,441.387C865.296,440.086 859.448,435.44 851.446,426.64L842.108,416.491C854.694,414.256 861.393,406.341 861.393,397.408C861.393,386.245 851.853,377.719 833.99,377.719L798.263,377.719L798.263,381.574C809.629,381.574 811.456,384.009 811.456,398.423L811.456,424.408C811.456,438.82 809.631,441.459 798.263,441.459L798.263,445.315L838.66,445.315L838.66,441.459C827.294,441.459 825.465,438.82 825.465,424.408L825.465,417.102L828.916,417.102L851.448,445.315L934.877,445.315L936.096,426.237L933.048,426.237L933.048,426.235ZM825.463,410.806L825.463,383.809L833.785,383.809C842.92,383.809 846.981,390.102 846.981,397.409C846.981,404.515 842.92,410.806 833.785,410.806L825.463,410.806ZM974.255,447.953C966.135,447.953 959.029,443.691 955.985,441.05C954.969,442.068 953.144,445.112 952.738,447.953L948.88,447.953L948.88,419.943L952.94,419.943C954.566,433.339 963.901,441.256 975.879,441.256C982.374,441.256 987.653,437.603 987.653,431.514C987.653,426.237 982.985,422.175 974.662,418.319L963.091,412.838C954.969,408.979 948.88,402.279 948.88,393.35C948.88,383.606 958.015,375.285 970.602,375.285C977.301,375.285 982.983,377.721 986.436,380.562C987.45,379.75 988.465,377.515 989.075,375.078L992.932,375.078L992.932,399.033L988.668,399.033C987.246,389.491 981.969,381.575 971.212,381.575C965.528,381.575 960.248,384.823 960.248,389.9C960.248,395.177 964.511,398.018 974.256,402.485L985.419,407.965C995.164,412.633 999.019,420.148 999.019,426.237C999.019,439.023 987.855,447.953 974.255,447.953ZM1036.78,447.953C1028.65,447.953 1021.55,443.691 1018.51,441.05C1017.49,442.068 1015.67,445.112 1015.26,447.953L1011.4,447.953L1011.4,419.943L1015.46,419.943C1017.09,433.339 1026.42,441.256 1038.4,441.256C1044.9,441.256 1050.17,437.603 1050.17,431.514C1050.17,426.237 1045.51,422.175 1037.18,418.319L1025.61,412.838C1017.49,408.979 1011.4,402.279 1011.4,393.35C1011.4,383.606 1020.53,375.285 1033.12,375.285C1039.82,375.285 1045.5,377.721 1048.96,380.562C1049.97,379.75 1050.99,377.515 1051.59,375.078L1055.45,375.078L1055.45,399.033L1051.19,399.033C1049.77,389.491 1044.49,381.575 1033.73,381.575C1028.05,381.575 1022.77,384.823 1022.77,389.9C1022.77,395.177 1027.03,398.018 1036.78,402.485L1047.94,407.965C1057.68,412.633 1061.54,420.148 1061.54,426.237C1061.54,439.023 1050.37,447.953 1036.78,447.953Z" style="fill:rgb(70,67,66);fill-rule:nonzero;"/>
            <path d="M153.347,399.997C153.347,435.556 174.012,466.286 203.978,480.849L161.125,363.437C155.988,374.94 153.337,387.399 153.347,399.997ZM303.829,395.464C303.829,384.362 299.841,376.673 296.421,370.688C291.867,363.288 287.598,357.021 287.598,349.621C287.598,341.363 293.862,333.676 302.684,333.676C303.082,333.676 303.46,333.726 303.848,333.748C287.865,319.105 266.571,310.165 243.183,310.165C211.798,310.165 184.186,326.268 168.123,350.657C170.231,350.721 172.217,350.765 173.904,350.765C183.301,350.765 197.846,349.625 197.846,349.625C202.689,349.339 203.26,356.452 198.422,357.025C198.422,357.025 193.556,357.597 188.14,357.881L220.855,455.189L240.515,396.226L226.518,357.878C221.68,357.594 217.097,357.021 217.097,357.021C212.256,356.738 212.824,349.336 217.665,349.621C217.665,349.621 232.501,350.762 241.328,350.762C250.723,350.762 265.27,349.621 265.27,349.621C270.116,349.336 270.685,356.449 265.846,357.021C265.846,357.021 260.969,357.594 255.564,357.878L288.029,454.449L296.99,424.505C300.874,412.079 303.829,403.155 303.829,395.464Z" style="fill:rgb(70,67,66);fill-rule:nonzero;"/>
            <path d="M244.759,407.856L217.805,486.179C226.046,488.606 234.592,489.838 243.183,489.838C253.644,489.838 263.677,488.03 273.015,484.746C272.766,484.353 272.552,483.939 272.376,483.509L244.759,407.856ZM322.01,356.897C322.397,359.758 322.615,362.83 322.615,366.134C322.615,375.25 320.913,385.498 315.785,398.312L288.344,477.65C315.051,462.076 333.015,433.141 333.015,399.999C333.017,384.38 329.027,369.693 322.01,356.897Z" style="fill:rgb(70,67,66);fill-rule:nonzero;"/>
            <path d="M243.183,295.279C185.441,295.279 138.462,342.256 138.462,399.997C138.462,457.746 185.441,504.721 243.183,504.721C300.923,504.721 347.909,457.746 347.909,399.997C347.908,342.256 300.923,295.279 243.183,295.279ZM243.183,499.921C188.089,499.921 143.263,455.095 143.263,399.997C143.263,344.903 188.087,300.081 243.183,300.081C298.275,300.081 343.097,344.903 343.097,399.997C343.097,455.095 298.275,499.921 243.183,499.921Z" style="fill:rgb(70,67,66);fill-rule:nonzero;"/>
        </g>
    </g>
</svg>
